<svg width="80" height="80" viewBox="0 0 80 80" fill="none" xmlns="http://www.w3.org/2000/svg">
<path d="M23.917 58.9046L23.9169 58.9043C23.3407 57.6601 22.3415 56.6608 21.0974 56.0844L21.0971 56.0842C12.325 52.0272 5.37693 46.1708 1.66383 42.6538C0.111643 41.1831 0.11165 38.8186 1.66385 37.3478C5.37693 33.8305 12.325 27.9741 21.0963 23.9171L21.0965 23.917C22.3408 23.3409 23.3402 22.3417 23.9165 21.0974L23.9166 21.0972C27.974 12.3251 33.8304 5.37699 37.3474 1.66389C38.8182 0.111711 41.183 0.111711 42.6538 1.66389C46.1707 5.37699 52.0272 12.3251 56.0842 21.0964L56.0843 21.0966C56.6606 22.3409 57.6599 23.3402 58.9042 23.9166L58.9045 23.9167C67.6762 27.9737 74.6243 33.8301 78.3369 37.347C79.8895 38.8178 79.8895 41.1827 78.3369 42.6535C74.6243 46.1704 67.6762 52.0268 58.9045 56.0838L58.9042 56.084C57.66 56.6605 56.6608 57.6597 56.0843 58.9038L56.0842 58.9042C52.0272 67.6758 46.1707 74.6239 42.6538 78.3366C41.183 79.8892 38.8186 79.8892 37.3478 78.3366L36.9848 78.6805L37.3478 78.3366C33.8304 74.6239 27.974 67.6762 23.917 58.9046ZM40.0008 55.2045C48.3973 55.2045 55.2044 48.3974 55.2044 40.0009C55.2044 31.6039 48.3973 24.7969 40.0008 24.7969C31.6038 24.7969 24.7968 31.6039 24.7968 40.0009C24.7968 48.3974 31.6039 55.2045 40.0008 55.2045Z" stroke="#202020"/>
</svg>
