<svg width="80" height="80" viewBox="0 0 80 80" fill="none" xmlns="http://www.w3.org/2000/svg">
<path d="M48.3536 21.04L62.6276 6.76591L73.2341 17.3724L58.96 31.6464L58.1065 32.5H59.3136H79.5V47.5H59.3136H58.1065L58.96 48.3536L73.2341 62.6276L62.6276 73.2341L48.3536 58.96L47.5 58.1065V59.3136V79.5H32.5V59.3136V58.1065L31.6464 58.96L17.3728 73.2341L6.76591 62.6272L21.0399 48.3536L21.8935 47.5H20.6864H0.5V32.5H20.6864H21.8935L21.04 31.6465L6.7663 17.3724L17.3724 6.76591L31.6464 21.04L32.5 21.8935V20.6864V0.5H47.5V20.6864V21.8935L48.3536 21.04Z" stroke="#202020"/>
</svg>
