<svg width="80" height="80" viewBox="0 0 80 80" fill="none" xmlns="http://www.w3.org/2000/svg">
<path d="M39.5 20C39.5 30.7695 30.7695 39.5 20 39.5C9.23054 39.5 0.5 30.7695 0.5 20C0.5 9.23054 9.23054 0.5 20 0.5C30.7695 0.5 39.5 9.23054 39.5 20ZM60 39.5C49.2305 39.5 40.5 30.7695 40.5 20C40.5 9.23054 49.2305 0.5 60 0.5C70.7695 0.5 79.5 9.23054 79.5 20C79.5 30.7695 70.7695 39.5 60 39.5ZM40.5 60C40.5 49.2305 49.2305 40.5 60 40.5C70.7695 40.5 79.5 49.2305 79.5 60C79.5 70.7695 70.7695 79.5 60 79.5C49.2305 79.5 40.5 70.7695 40.5 60ZM20 40.5C30.7695 40.5 39.5 49.2305 39.5 60C39.5 70.7695 30.7695 79.5 20 79.5C9.23054 79.5 0.5 70.7695 0.5 60C0.5 49.2305 9.23054 40.5 20 40.5Z" stroke="#202020"/>
</svg>
